<svg xmlns="http://www.w3.org/2000/svg" fill="none" viewBox="0 0 140 37" height="37" width="140">
<path fill="#FF3CA0" d="M11.3944 0.00360449C11.3872 1.25436 11.4196 2.50512 11.3583 3.75228C11.3043 4.85525 11.088 5.94381 10.6483 6.97109C9.90573 8.71206 8.59009 9.86189 6.87435 10.5864C5.74614 11.0658 4.56387 11.3469 3.34555 11.4731C2.48047 11.5632 1.61179 11.6137 0.743102 11.6713C0.512415 11.6894 0.278123 11.6713 0.00778571 11.6713C0.00778571 10.8315 -0.0138413 10.0457 0.0149947 9.25994C0.0402262 8.5823 0.112316 7.90465 0.191615 7.23061C0.321377 6.10962 0.616945 5.02827 1.17564 4.03703C1.89294 2.76465 2.95626 1.86713 4.2719 1.26157C5.37127 0.756944 6.52832 0.439748 7.72861 0.291964C8.40265 0.209061 9.0803 0.158598 9.75794 0.0865078C9.89491 0.0720899 10.9835 0 11.398 0"></path>
<path fill="#FF3CA0" d="M12.2198 16.8474V9.44017C12.847 9.37529 13.4598 9.3825 14.0689 9.44017C15.298 9.55551 16.5056 9.79341 17.6842 10.1719C19.6126 10.7955 21.3464 11.7506 22.7918 13.1744C24.3057 14.6667 25.2645 16.4761 25.7547 18.5379C26.1548 20.2248 26.3134 21.9369 26.2197 23.6635C26.0899 26.0641 25.4843 28.3349 24.1723 30.3823C22.8747 32.408 21.1085 33.9111 18.9818 34.9924C18.1636 35.4105 17.2481 35.58 16.3506 35.7674C14.8691 36.0774 13.3624 36.1531 11.863 36.0449C8.73066 35.8214 5.9516 34.7509 3.69158 32.5053C2.76522 31.5862 1.95421 30.5769 1.37389 29.4018C0.789961 28.216 0.483579 26.9436 0.292541 25.6424C0.115921 24.4168 0.115921 23.1877 0.115921 21.955C0.119525 19.6769 0.115921 14.5766 0.115921 14.5766H7.58443C7.58443 14.5766 7.58443 20.6357 7.58443 23.404C7.58443 24.2799 7.70698 25.1341 8.02778 25.956C8.44951 27.0301 9.19203 27.787 10.2698 28.2052C11.4052 28.6449 12.5803 28.8828 13.8022 28.7819C15.5504 28.6341 17.003 27.9601 17.951 26.4029C18.8052 25.0008 19.2738 23.4977 19.126 21.8504C18.9458 19.8535 17.5328 17.7413 15.3413 17.1574C14.3212 16.8834 13.294 16.7969 12.2126 16.851"></path>
<path fill="#FF3CA0" d="M47.9295 21.7819C48.0737 21.8468 48.1674 21.8973 48.2684 21.9369C50.0778 22.6723 51.1231 24.0456 51.5052 25.9163C51.7791 27.2572 51.671 28.5908 51.1664 29.874C50.3554 31.9394 48.8162 33.1073 46.6607 33.5038C46.2426 33.5795 45.8137 33.6191 45.3884 33.6191C41.6938 33.6299 33.8215 33.6227 33.8215 33.6227V11.8876C33.8215 11.8876 41.063 11.8804 44.5053 11.8876C45.5686 11.8876 46.5706 12.1652 47.497 12.6914C48.8162 13.4484 49.5588 14.6342 49.9048 16.0688C50.1319 17.0132 50.1247 17.9792 49.9408 18.938C49.7282 20.0302 49.1587 20.888 48.2467 21.526C48.1494 21.5945 48.0557 21.6738 47.9367 21.7711M37.6783 30.1191H39.8771C41.5243 30.1191 43.1752 30.13 44.8225 30.1191C46.4228 30.1047 47.5078 29.0054 47.6952 27.7762C47.7457 27.4518 47.7745 27.1166 47.7673 26.7886C47.7385 25.2459 46.6427 23.869 44.8008 23.8401C42.5336 23.8041 40.2664 23.8293 37.9991 23.8329C37.8946 23.8329 37.7901 23.8654 37.6783 23.887V30.1227V30.1191ZM37.6711 20.2933C37.8153 20.3077 37.909 20.3257 38.0028 20.3257C39.9023 20.3257 41.8055 20.3329 43.7051 20.3221C44.0006 20.3221 44.307 20.2753 44.5918 20.1888C45.6082 19.886 46.1273 19.1471 46.2138 18.1342C46.3111 17.0276 45.8966 16.0292 44.7936 15.6075C44.4476 15.4741 44.0547 15.4092 43.6834 15.4056C41.8307 15.3876 39.9744 15.3948 38.1217 15.3984C37.9739 15.3984 37.8261 15.438 37.6711 15.4597V20.2933Z"></path>
<path fill="#FF3CA0" d="M118.275 33.6263H114.634C114.634 33.6263 114.609 27.5924 114.609 24.8566C114.609 24.3339 114.58 23.8113 114.4 23.3175C114.061 22.4019 113.423 21.7711 112.49 21.4756C111.592 21.1908 110.684 21.18 109.783 21.4684C108.496 21.8793 107.667 23.0039 107.663 24.3556C107.66 27.268 107.663 33.4281 107.663 33.6191H103.994C103.987 33.4353 103.976 27.4698 103.976 24.6692C103.976 24.1753 103.918 23.6923 103.734 23.231C103.413 22.4272 102.858 21.8504 102.04 21.5441C101.168 21.216 100.278 21.1728 99.3801 21.3999C97.9311 21.7639 97.0227 22.9426 97.0191 24.4493C97.0155 27.3112 97.0191 33.6191 97.0191 33.6191L93.3245 33.6263C93.3245 33.6263 93.2813 27.2175 93.3497 24.197C93.4074 21.782 94.5861 19.9689 96.6875 18.765C97.7112 18.1775 98.8214 17.9035 99.9964 17.8819C100.916 17.8639 101.831 17.8639 102.721 18.145C103.85 18.5055 104.819 19.1002 105.544 20.0518C105.591 20.1131 105.641 20.178 105.695 20.2356C105.717 20.2573 105.749 20.2681 105.81 20.3005C105.904 20.196 106.002 20.0806 106.099 19.9653C107.032 18.8551 108.215 18.1811 109.656 17.9756C110.907 17.7954 112.162 17.7738 113.373 18.1378C116.033 18.9344 117.684 20.6862 118.196 23.44C118.246 23.7176 118.246 24.0059 118.246 24.2907C118.246 27.2319 118.271 33.6227 118.271 33.6227"></path>
<path fill="#FF3CA0" d="M66.3665 17.9576C67.8263 17.8891 69.1996 18.2243 70.4865 18.8875C72.2166 19.7851 73.3664 21.1908 73.9432 23.0399C74.6388 25.2747 74.5595 27.4915 73.6079 29.6506C72.7248 31.6547 71.1749 32.9523 69.0987 33.5614C67.1595 34.1309 65.1806 34.1273 63.263 33.4569C60.7399 32.5738 59.1503 30.7788 58.5448 28.1907C58.1194 26.3813 58.1519 24.5538 58.7971 22.7804C59.536 20.7511 60.9309 19.3453 62.9422 18.5451C64.0452 18.1054 65.1878 17.8999 66.3701 17.9576M70.7207 25.9379C70.6811 25.5631 70.6595 25.1846 70.5946 24.8097C70.2918 22.9931 69.1239 21.8324 67.5956 21.4467C66.8459 21.2593 66.0926 21.2233 65.3392 21.3746C63.9227 21.6594 62.881 22.4272 62.3511 23.7969C61.8717 25.0296 61.8645 26.2984 62.1853 27.5672C62.5566 29.0378 63.5045 29.9858 64.9608 30.4039C65.7141 30.6202 66.4891 30.6526 67.2604 30.5012C68.5076 30.2597 69.488 29.6253 70.108 28.4971C70.5441 27.7041 70.6883 26.8354 70.7171 25.9379"></path>
<path fill="#FF3CA0" d="M83.8195 33.976C82.4029 33.9651 81.0404 33.7381 79.7788 33.0784C77.6306 31.9574 76.3726 30.1768 75.9184 27.8087C75.6373 26.3416 75.6589 24.8818 76.0482 23.4472C76.7114 21.0034 78.2649 19.3489 80.6439 18.4622C81.9487 17.9756 83.3004 17.8891 84.6665 17.9864C86.6274 18.127 88.3467 18.8299 89.7489 20.2464C90.787 21.2953 91.3673 22.5785 91.6592 23.9915C91.9692 25.4946 91.9332 27.0049 91.497 28.4863C90.6031 31.5105 88.5738 33.2767 85.4703 33.8138C84.926 33.9075 84.371 33.9255 83.8195 33.976ZM79.4076 26.165C79.458 26.493 79.4869 27.0157 79.6202 27.5167C80.0275 29.0666 81.0044 30.0723 82.5903 30.4472C83.2103 30.5949 83.8303 30.6274 84.4719 30.5373C86.148 30.2994 87.3086 29.4235 87.8601 27.8195C88.2818 26.5903 88.271 25.3324 87.8781 24.096C87.4672 22.8056 86.5913 21.9333 85.2973 21.5224C84.2268 21.18 83.1418 21.198 82.0821 21.5801C81.0188 21.9658 80.2546 22.6939 79.8221 23.7464C79.5301 24.4565 79.44 25.2062 79.4112 26.1614"></path>
<path fill="#FF3CA0" d="M129.359 33.5903H125.714C125.714 33.5903 125.632 27.2067 125.7 24.2042C125.754 21.8144 126.897 19.9941 128.966 18.7758C129.968 18.1847 131.06 17.9035 132.217 17.8567C133.345 17.8134 134.466 17.8386 135.54 18.2423C137.977 19.1543 139.491 20.8448 139.909 23.4436C139.97 23.8149 139.995 24.197 139.995 24.5718C140.003 27.3869 139.999 33.5903 139.999 33.5903H136.33C136.33 33.5903 136.315 27.304 136.312 24.4421C136.312 23.4941 135.984 22.6867 135.27 22.0415C134.78 21.6017 134.189 21.3819 133.558 21.2917C132.595 21.1548 131.655 21.2413 130.808 21.7567C130.036 22.2253 129.571 22.9246 129.442 23.8185C129.387 24.1753 129.362 24.543 129.362 24.9034C129.355 27.6068 129.362 33.5939 129.362 33.5939"></path>
<path fill="#FF3CA0" d="M53.1452 11.9453H56.7533V33.5759L53.1633 33.6263L53.1452 11.9453Z"></path>
<path fill="#FF3CA0" d="M123.898 18.1703V33.5939L120.272 33.6263V18.2207C120.593 18.1198 122.798 18.0837 123.898 18.1666"></path>
<path fill="#FF3CA0" d="M120.178 16.2094C120.12 15.3623 120.149 14.5622 120.383 13.7872C120.607 13.0519 121.101 12.5328 121.796 12.212C122.633 11.8299 123.523 11.747 124.482 11.7723C124.514 11.9453 124.579 12.1147 124.568 12.2769C124.536 12.796 124.507 13.315 124.42 13.8268C124.244 14.8757 123.584 15.5354 122.6 15.8778C121.832 16.1445 121.039 16.2527 120.171 16.2094"></path>
</svg>
